<svg xmlns="http://www.w3.org/2000/svg" width="56" height="70" viewBox="0 0 56 70">
  <defs>
    <radialGradient id="opening"><stop stop-color="#5c9caa" stop-opacity=".28"/><stop offset="1" stop-color="#071522" stop-opacity="0"/></radialGradient>
    <linearGradient id="steel" x2="1" y2="0"><stop stop-color="#77909b"/><stop offset=".25" stop-color="#405b6b"/><stop offset="1" stop-color="#152837"/></linearGradient>
  </defs>
  <ellipse cx="28" cy="42" rx="27" ry="28" fill="url(#opening)"/>
  <!-- Torn bars curl away from the gap, leaving the center open. -->
  <path d="M16 0h7v9l-4 9-10 7-4-5 9-8 2-5Z" fill="url(#steel)" stroke="#102333" stroke-width="1"/>
  <path d="M48 0h7v9l-2 7 2 8-5 3-5-12 2-8Z" fill="url(#steel)" stroke="#102333" stroke-width="1"/>
  <path d="m5 20 4 5 3-2-4-5Z" fill="#b0c6c9"/>
  <path d="m50 27 5-3-1-3-5 3Z" fill="#a3bec2"/>
  <path d="M16 70h7v-7l-5-5-8-3-3 5 8 4Z" fill="url(#steel)" stroke="#102333" stroke-width="1"/>
  <path d="M48 70h7v-8l-1-7-5-3-3 5 3 6Z" fill="url(#steel)" stroke="#102333" stroke-width="1"/>
  <path d="m7 60 3-5 3 1-3 5Z M46 57l3-5 3 2-3 5Z" fill="#aac5ca"/>
  <path d="M17 1v7l-4 7-6 5M49 1v7l-2 7 4 9M17 69v-6l-7-5M49 69v-6l-1-6" fill="none" stroke="#668997" stroke-width="1"/>
</svg>
