<svg xmlns="http://www.w3.org/2000/svg" width="96" height="32" viewBox="0 0 96 32"><defs><linearGradient id="metal" x2="0" y2="1"><stop stop-color="#587586"/><stop offset=".45" stop-color="#293f52"/><stop offset="1" stop-color="#102233"/></linearGradient><linearGradient id="blade" x2="1" y2="1"><stop stop-color="#d0dee1"/><stop offset=".45" stop-color="#7899a9"/><stop offset=".5" stop-color="#385769"/><stop offset="1" stop-color="#182f40"/></linearGradient><radialGradient id="core"><stop stop-color="#ffe5f7"/><stop offset=".35" stop-color="#f273ce"/><stop offset="1" stop-color="#78265e"/></radialGradient></defs><rect x="1" y="23" width="94" height="8" rx="2" fill="url(#metal)" stroke="#081622"/><path d="M3 24 13 1 23 24Z" fill="url(#blade)" stroke="#0a1b2a"/><path d="M13 4v17" stroke="#dc79c4" stroke-width="1.2"/><path d="M26 24 36 1 46 24Z" fill="url(#blade)" stroke="#0a1b2a"/><path d="M36 4v17" stroke="#dc79c4" stroke-width="1.2"/><path d="M49 24 59 1 69 24Z" fill="url(#blade)" stroke="#0a1b2a"/><path d="M59 4v17" stroke="#dc79c4" stroke-width="1.2"/><path d="M72 24 82 1 92 24Z" fill="url(#blade)" stroke="#0a1b2a"/><path d="M82 4v17" stroke="#dc79c4" stroke-width="1.2"/><path d="M9 28h15m12 0h24m12 0h15" stroke="#60d1d2" stroke-width="1.4"/><circle cx="4" cy="27" r="2" fill="#091622" stroke="#79919b" stroke-width=".7"/><path d="M3.2 26.2l1.6 1.6" stroke="#9eb5ba" stroke-width=".5"/><circle cx="92" cy="27" r="2" fill="#091622" stroke="#79919b" stroke-width=".7"/><path d="M91.2 26.2l1.6 1.6" stroke="#9eb5ba" stroke-width=".5"/></svg>
